<svg width="57" height="46" viewBox="0 0 57 46" fill="none" xmlns="http://www.w3.org/2000/svg">
<g clip-path="url(#clip0_141_1330)">
<g clip-path="url(#clip1_141_1330)">
<path d="M23.5002 17.748L22.7832 17.011C21.1002 15.281 18.0142 15.878 16.9002 18.053C16.3772 19.076 16.2592 20.553 17.2142 22.438C18.1342 24.253 20.0482 26.427 23.5002 28.795C26.9522 26.427 28.8652 24.253 29.7862 22.438C30.7412 20.552 30.6242 19.076 30.1002 18.053C28.9862 15.878 25.9002 15.28 24.2172 17.01L23.5002 17.748ZM23.5002 30C8.1672 19.868 18.7792 11.96 23.3242 16.143C23.3842 16.198 23.4432 16.255 23.5002 16.314C23.5566 16.2551 23.6153 16.1984 23.6762 16.144C28.2202 11.958 38.8332 19.867 23.5002 30Z" fill="#23A6F0"/>
</g>
<path d="M37.0631 18.612H40.1111V27H38.7671V19.872H37.0631V18.612Z" fill="#23A6F0"/>
</g>
<defs>
<clipPath id="clip0_141_1330">
<rect width="56" height="46" fill="white" transform="translate(0.500305)"/>
</clipPath>
<clipPath id="clip1_141_1330">
<rect width="16" height="16" fill="white" transform="translate(15.5003 15)"/>
</clipPath>
</defs>
</svg>
