<svg width="17" height="15" viewBox="0 0 17 15" fill="none" xmlns="http://www.w3.org/2000/svg">
<path d="M8.5002 2.74805L7.7832 2.01105C6.1002 0.281049 3.0142 0.878049 1.9002 3.05305C1.3772 4.07605 1.2592 5.55305 2.2142 7.43805C3.1342 9.25305 5.0482 11.427 8.5002 13.795C11.9522 11.427 13.8652 9.25305 14.7862 7.43805C15.7412 5.55205 15.6242 4.07605 15.1002 3.05305C13.9862 0.878049 10.9002 0.280049 9.2172 2.01005L8.5002 2.74805ZM8.5002 15C-6.8328 4.86805 3.7792 -3.03995 8.3242 1.14305C8.3842 1.19805 8.4432 1.25505 8.5002 1.31405C8.55662 1.2551 8.61533 1.19839 8.6762 1.14405C13.2202 -3.04195 23.8332 4.86705 8.5002 15Z" fill="#23A6F0"/>
</svg>
