<svg width="16" height="15" viewBox="0 0 16 15" fill="none" xmlns="http://www.w3.org/2000/svg">
<path d="M0.500305 0.5C0.500305 0.367392 0.552984 0.240215 0.646752 0.146447C0.74052 0.0526784 0.867697 0 1.00031 0H2.50031C2.61184 3.08115e-05 2.72016 0.0373507 2.80804 0.106025C2.89592 0.174699 2.95831 0.270784 2.98531 0.379L3.39031 2H15.0003C15.0737 2.00007 15.1462 2.0163 15.2127 2.04755C15.2791 2.0788 15.3378 2.12429 15.3847 2.1808C15.4316 2.23731 15.4654 2.30345 15.4838 2.37452C15.5023 2.44558 15.5048 2.51984 15.4913 2.592L13.9913 10.592C13.9699 10.7066 13.909 10.8101 13.8194 10.8846C13.7297 10.9591 13.6169 10.9999 13.5003 11H4.50031C4.38374 10.9999 4.27087 10.9591 4.18122 10.8846C4.09156 10.8101 4.03075 10.7066 4.00931 10.592L2.51031 2.607L2.11031 1H1.00031C0.867697 1 0.74052 0.947322 0.646752 0.853553C0.552984 0.759785 0.500305 0.632608 0.500305 0.5ZM3.60231 3L4.91531 10H13.0853L14.3983 3H3.60231ZM5.50031 11C4.96987 11 4.46116 11.2107 4.08609 11.5858C3.71102 11.9609 3.50031 12.4696 3.50031 13C3.50031 13.5304 3.71102 14.0391 4.08609 14.4142C4.46116 14.7893 4.96987 15 5.50031 15C6.03074 15 6.53945 14.7893 6.91452 14.4142C7.28959 14.0391 7.50031 13.5304 7.50031 13C7.50031 12.4696 7.28959 11.9609 6.91452 11.5858C6.53945 11.2107 6.03074 11 5.50031 11ZM12.5003 11C11.9699 11 11.4612 11.2107 11.0861 11.5858C10.711 11.9609 10.5003 12.4696 10.5003 13C10.5003 13.5304 10.711 14.0391 11.0861 14.4142C11.4612 14.7893 11.9699 15 12.5003 15C13.0307 15 13.5394 14.7893 13.9145 14.4142C14.2896 14.0391 14.5003 13.5304 14.5003 13C14.5003 12.4696 14.2896 11.9609 13.9145 11.5858C13.5394 11.2107 13.0307 11 12.5003 11ZM5.50031 12C5.76552 12 6.01988 12.1054 6.20741 12.2929C6.39495 12.4804 6.50031 12.7348 6.50031 13C6.50031 13.2652 6.39495 13.5196 6.20741 13.7071C6.01988 13.8946 5.76552 14 5.50031 14C5.23509 14 4.98073 13.8946 4.7932 13.7071C4.60566 13.5196 4.50031 13.2652 4.50031 13C4.50031 12.7348 4.60566 12.4804 4.7932 12.2929C4.98073 12.1054 5.23509 12 5.50031 12ZM12.5003 12C12.7655 12 13.0199 12.1054 13.2074 12.2929C13.3949 12.4804 13.5003 12.7348 13.5003 13C13.5003 13.2652 13.3949 13.5196 13.2074 13.7071C13.0199 13.8946 12.7655 14 12.5003 14C12.2351 14 11.9807 13.8946 11.7932 13.7071C11.6057 13.5196 11.5003 13.2652 11.5003 13C11.5003 12.7348 11.6057 12.4804 11.7932 12.2929C11.9807 12.1054 12.2351 12 12.5003 12Z" fill="#23A6F0"/>
</svg>
