<svg width="17" height="16" viewBox="0 0 17 16" fill="none" xmlns="http://www.w3.org/2000/svg">
<path d="M12.2426 10.3441C13.2109 9.02279 13.6446 7.38459 13.4569 5.75725C13.2692 4.12991 12.474 2.63344 11.2304 1.56723C9.98671 0.501022 8.38634 -0.0562959 6.74943 0.00677721C5.11252 0.0698504 3.55978 0.748663 2.40186 1.90741C1.24394 3.06615 0.566243 4.61938 0.504341 6.25633C0.44244 7.89329 1.0009 9.49326 2.068 10.7361C3.1351 11.979 4.63214 12.7732 6.25961 12.9597C7.88709 13.1462 9.52497 12.7113 10.8456 11.7421H10.8446C10.8746 11.7821 10.9066 11.8201 10.9426 11.8571L14.7926 15.7071C14.9801 15.8947 15.2345 16.0002 15.4997 16.0003C15.765 16.0004 16.0195 15.8951 16.2071 15.7076C16.3947 15.5201 16.5002 15.2657 16.5003 15.0005C16.5004 14.7352 16.3951 14.4807 16.2076 14.2931L12.3576 10.4431C12.3218 10.4069 12.2834 10.3735 12.2426 10.3431V10.3441ZM12.5006 6.5001C12.5006 7.22237 12.3583 7.93757 12.0819 8.60486C11.8055 9.27215 11.4004 9.87847 10.8897 10.3892C10.379 10.8999 9.77264 11.305 9.10535 11.5814C8.43806 11.8578 7.72286 12.0001 7.00059 12.0001C6.27832 12.0001 5.56312 11.8578 4.89583 11.5814C4.22854 11.305 3.62223 10.8999 3.11151 10.3892C2.60078 9.87847 2.19566 9.27215 1.91926 8.60486C1.64285 7.93757 1.50059 7.22237 1.50059 6.5001C1.50059 5.04141 2.08006 3.64246 3.11151 2.61101C4.14296 1.57956 5.5419 1.0001 7.00059 1.0001C8.45928 1.0001 9.85823 1.57956 10.8897 2.61101C11.9211 3.64246 12.5006 5.04141 12.5006 6.5001Z" fill="#23A6F0"/>
</svg>
